<?xml version="1.0" encoding="UTF-8" standalone="no"?>
<svg
   xmlns:dc="http://purl.org/dc/elements/1.1/"
   xmlns:cc="http://web.resource.org/cc/"
   xmlns:rdf="http://www.w3.org/1999/02/22-rdf-syntax-ns#"
   xmlns:svg="http://www.w3.org/2000/svg"
   xmlns="http://www.w3.org/2000/svg"
   xmlns:sodipodi="http://sodipodi.sourceforge.net/DTD/sodipodi-0.dtd"
   xmlns:inkscape="http://www.inkscape.org/namespaces/inkscape"
   width="341.63608"
   height="101.72495"
   id="svg2"
   sodipodi:version="0.32"
   inkscape:version="0.45.1"
   sodipodi:docname="Vanderbilt CAS logo.svg"
   inkscape:output_extension="org.inkscape.output.svg.inkscape"
   sodipodi:docbase="C:\Documents and Settings\hartja\Desktop"
   version="1.0">
  <metadata
     id="metadata151">
    <rdf:RDF>
      <cc:Work
         rdf:about="">
        <dc:format>image/svg+xml</dc:format>
        <dc:type
           rdf:resource="http://purl.org/dc/dcmitype/StillImage" />
      </cc:Work>
    </rdf:RDF>
  </metadata>
  <defs
     id="defs149" />
  <sodipodi:namedview
     inkscape:window-height="573"
     inkscape:window-width="744"
     inkscape:pageshadow="2"
     inkscape:pageopacity="0.0"
     guidetolerance="10.0"
     gridtolerance="10.0"
     objecttolerance="10.0"
     borderopacity="1.0"
     bordercolor="#666666"
     pagecolor="#ffffff"
     id="base"
     showgrid="false"
     inkscape:zoom="1.9289532"
     inkscape:cx="170.81804"
     inkscape:cy="50.862476"
     inkscape:window-x="88"
     inkscape:window-y="116"
     inkscape:current-layer="svg2" />
  <g
     transform="scale(1.0981128,0.4701522)"
     style="fill:#000000;fill-rule:nonzero;stroke:none;stroke-width:1pt;stroke-linecap:butt;stroke-linejoin:miter;stroke-dasharray:none"
     id="g4">
    <path
       d="M 311.112,216.366 C 311.112,216.366 0,216.366 0,216.366 C 0,216.366 0,0 0,0 C 0,0 311.112,0 311.112,0 C 311.112,0 311.112,216.366 311.112,216.366 z "
       id="path6" />
  </g>
  <g
     transform="translate(99.414576,60.28407)"
     style="fill:#ffffff;fill-rule:nonzero;stroke:none;stroke-width:1pt;stroke-linecap:butt;stroke-linejoin:miter;stroke-dasharray:none"
     id="g8">
    <path
       d="M 9.7705,2.22 C 8.8027,1.541 7.7666,1.291 6.5664,1.291 C 3.6855,1.291 1.6455,3.582 1.6455,6.444 C 1.6455,9.307 3.6855,11.597 6.5664,11.597 C 7.6572,11.597 8.7861,11.185 9.7519,10.631 C 9.7519,10.631 10.3603,11.722 10.3603,11.722 C 9.25,12.369 7.872,12.885 6.5664,12.885 C 2.8984,12.885 0,10.488 0,6.444 C 0,2.65 2.8984,0 6.5664,0 C 8.0332,0 9.2158,0.361 10.414,1.003 C 10.414,1.003 9.7705,2.22 9.7705,2.22 z "
       id="path10" />
  </g>
  <g
     transform="translate(111.72708,63.75807)"
     style="fill:#ffffff;fill-rule:nonzero;stroke:none;stroke-width:1pt;stroke-linecap:butt;stroke-linejoin:miter;stroke-dasharray:none"
     id="g12">
    <path
       d="M 1.538,4.706 C 1.538,2.236 2.9873,1.074 4.3291,1.074 C 5.7783,1.074 6.9775,2.236 6.9775,4.706 C 6.9775,7.176 5.5292,8.338 4.1855,8.338 C 2.7373,8.338 1.538,7.176 1.538,4.706 z M 0,4.706 C 0,7.642 1.5556,9.411 4.1679,9.411 C 6.996,9.411 8.5166,7.014 8.5166,4.706 C 8.5166,1.788 6.9609,0 4.3476,0 C 1.5185,0 0,2.398 0,4.706 z "
       id="path14" />
  </g>
  <g
     transform="translate(122.74848,59.49807)"
     style="fill:#ffffff;fill-rule:nonzero;stroke:none;stroke-width:1pt;stroke-linecap:butt;stroke-linejoin:miter;stroke-dasharray:none"
     id="g16">
    <path
       d="M 0.1084,0 C 0.1084,0 1.5381,0 1.5381,0 C 1.5381,0 1.4327,13.422 1.4327,13.422 C 1.4327,13.422 0,13.422 0,13.422 C 0,13.422 0.1084,0 0.1084,0 z "
       id="path18" />
  </g>
  <g
     transform="translate(127.27688,59.49807)"
     style="fill:#ffffff;fill-rule:nonzero;stroke:none;stroke-width:1pt;stroke-linecap:butt;stroke-linejoin:miter;stroke-dasharray:none"
     id="g20">
    <path
       d="M 0.1074,0 C 0.1074,0 1.539,0 1.539,0 C 1.539,0 1.4316,13.422 1.4316,13.422 C 1.4316,13.422 0,13.422 0,13.422 C 0,13.422 0.1074,0 0.1074,0 z "
       id="path22" />
  </g>
  <g
     transform="translate(131.28468,63.75807)"
     style="fill:#ffffff;fill-rule:nonzero;stroke:none;stroke-width:1pt;stroke-linecap:butt;stroke-linejoin:miter;stroke-dasharray:none"
     id="g24">
    <path
       d="M 1.665,3.543 C 1.8974,2.325 2.7549,1.074 4.0976,1.074 C 5.5478,1.074 6.0849,2.273 6.0849,3.543 C 6.0849,3.543 1.665,3.543 1.665,3.543 z M 7.5166,4.509 C 7.5166,4.509 7.5166,4.222 7.5166,4.222 C 7.5166,1.824 6.4785,0 4.08,0 C 1.6836,0 0,2.255 0,4.706 C 0,7.623 1.4306,9.411 3.9023,9.411 C 5.2265,9.411 6.3896,8.733 7.3007,7.822 C 7.3007,7.822 6.6035,7.05 6.6035,7.05 C 5.834,7.75 5.083,8.338 4.0634,8.338 C 2.2382,8.338 1.539,6.674 1.539,4.814 C 1.539,4.814 1.539,4.509 1.539,4.509 C 1.539,4.509 7.5166,4.509 7.5166,4.509 z "
       id="path26" />
  </g>
  <g
     transform="translate(140.59228,63.75807)"
     style="fill:#ffffff;fill-rule:nonzero;stroke:none;stroke-width:1pt;stroke-linecap:butt;stroke-linejoin:miter;stroke-dasharray:none"
     id="g28">
    <path
       d="M 1.4297,10.844 C 1.4297,10.022 1.8232,9.448 3.3808,8.609 C 6.2627,9.126 7.0127,9.448 7.0127,10.468 C 7.0127,11.935 5.1533,12.526 4.043,12.526 C 3.0049,12.526 1.4297,12.168 1.4297,10.844 z M 9.0185,0.359 C 9.0185,0.359 6.0469,0.412 6.0469,0.412 C 5.5459,0.108 4.9551,0 4.3838,0 C 2.7021,0 1.1982,1.181 1.1982,2.933 C 1.1982,3.973 1.501,4.706 2.3242,5.349 C 0.7861,6.228 0.25,6.693 0.25,7.23 C 0.25,7.764 0.8223,8.231 2.3965,8.374 C 2.3965,8.374 2.3965,8.409 2.3965,8.409 C 1.4482,8.91 0,9.628 0,10.88 C 0,12.937 2.5215,13.385 4.1162,13.385 C 5.958,13.385 8.5517,12.347 8.5517,10.162 C 8.5517,8.57 7.0498,7.998 4.7246,7.659 C 2.1806,7.283 1.8955,7.032 1.8955,6.711 C 1.8955,6.495 2.0566,6.281 2.8789,5.672 C 3.3808,5.906 3.8642,6.013 4.4355,6.013 C 6.1719,6.013 7.5508,4.759 7.5508,3.042 C 7.5508,2.469 7.3896,1.877 6.9062,1.324 C 6.9062,1.324 9.0185,1.377 9.0185,1.377 C 9.0185,1.377 9.0185,0.359 9.0185,0.359 z M 6.1181,3.023 C 6.1181,4.115 5.6181,5.047 4.293,5.047 C 3.2187,5.047 2.6299,4.115 2.6299,3.076 C 2.6299,1.824 3.3808,0.965 4.3467,0.965 C 5.6181,0.965 6.1181,1.824 6.1181,3.023 z "
       id="path30" />
  </g>
  <g
     transform="translate(151.09618,63.75807)"
     style="fill:#ffffff;fill-rule:nonzero;stroke:none;stroke-width:1pt;stroke-linecap:butt;stroke-linejoin:miter;stroke-dasharray:none"
     id="g32">
    <path
       d="M 1.6631,3.543 C 1.8961,2.325 2.7561,1.074 4.0981,1.074 C 5.5481,1.074 6.0841,2.273 6.0841,3.543 C 6.0841,3.543 1.6631,3.543 1.6631,3.543 z M 7.5161,4.509 C 7.5161,4.509 7.5161,4.222 7.5161,4.222 C 7.5161,1.824 6.4771,0 4.0801,0 C 1.6811,0 0,2.255 0,4.706 C 0,7.623 1.4321,9.411 3.9011,9.411 C 5.2251,9.411 6.3891,8.733 7.3011,7.822 C 7.3011,7.822 6.6021,7.05 6.6021,7.05 C 5.8341,7.75 5.0811,8.338 4.0601,8.338 C 2.2361,8.338 1.5391,6.674 1.5391,4.814 C 1.5391,4.814 1.5391,4.509 1.5391,4.509 C 1.5391,4.509 7.5161,4.509 7.5161,4.509 z "
       id="path34" />
  </g>
  <g
     transform="translate(164.57828,63.75807)"
     style="fill:#ffffff;fill-rule:nonzero;stroke:none;stroke-width:1pt;stroke-linecap:butt;stroke-linejoin:miter;stroke-dasharray:none"
     id="g36">
    <path
       d="M 1.538,4.706 C 1.538,2.236 2.989,1.074 4.329,1.074 C 5.78,1.074 6.978,2.236 6.978,4.706 C 6.978,7.176 5.529,8.338 4.186,8.338 C 2.737,8.338 1.538,7.176 1.538,4.706 z M 0,4.706 C 0,7.642 1.556,9.411 4.169,9.411 C 6.997,9.411 8.516,7.014 8.516,4.706 C 8.516,1.788 6.96,0 4.349,0 C 1.52,0 0,2.398 0,4.706 z "
       id="path38" />
  </g>
  <g
     transform="translate(174.79728,59.35607)"
     style="fill:#ffffff;fill-rule:nonzero;stroke:none;stroke-width:1pt;stroke-linecap:butt;stroke-linejoin:miter;stroke-dasharray:none"
     id="g40">
    <path
       d="M 0,4.65 C 0,4.65 1.733,4.65 1.733,4.65 C 1.733,4.133 1.753,3.523 1.808,2.934 C 2.004,0.752 3.507,0 5.546,0 C 5.546,0 5.546,1.183 5.546,1.183 C 5.546,1.183 4.92,1.183 4.92,1.183 C 3.72,1.183 3.202,2.147 3.167,3.221 C 3.167,3.221 3.113,4.65 3.113,4.65 C 3.113,4.65 5.546,4.65 5.546,4.65 C 5.546,4.65 5.546,5.726 5.546,5.726 C 5.546,5.726 3.167,5.726 3.167,5.726 C 3.167,5.726 3.095,13.564 3.095,13.564 C 3.095,13.564 1.663,13.564 1.663,13.564 C 1.663,13.564 1.733,5.726 1.733,5.726 C 1.733,5.726 0,5.726 0,5.726 C 0,5.726 0,4.65 0,4.65 z "
       id="path42" />
  </g>
  <g
     transform="translate(185.11228,60.53907)"
     style="fill:#ffffff;fill-rule:nonzero;stroke:none;stroke-width:1pt;stroke-linecap:butt;stroke-linejoin:miter;stroke-dasharray:none"
     id="g44">
    <path
       d="M 7.836,6.974 C 7.836,6.974 3.774,6.974 3.774,6.974 C 3.774,6.974 5.85,1.393 5.85,1.393 C 5.85,1.393 5.886,1.393 5.886,1.393 C 5.886,1.393 7.836,6.974 7.836,6.974 z M 0,12.184 C 0,12.184 1.43,12.63 1.43,12.63 C 1.43,12.63 3.239,8.266 3.239,8.266 C 3.239,8.266 8.356,8.266 8.356,8.266 C 8.356,8.266 10.038,12.63 10.038,12.63 C 10.038,12.63 11.577,12.129 11.577,12.129 C 11.577,12.129 6.656,0 6.656,0 C 6.656,0 5.189,0 5.189,0 C 5.189,0 0,12.184 0,12.184 z "
       id="path46" />
  </g>
  <g
     transform="translate(198.78428,63.75807)"
     style="fill:#ffffff;fill-rule:nonzero;stroke:none;stroke-width:1pt;stroke-linecap:butt;stroke-linejoin:miter;stroke-dasharray:none"
     id="g48">
    <path
       d="M 0.072,0.248 C 0.072,0.248 1.538,0.248 1.538,0.248 C 1.538,0.248 1.521,1.985 1.521,1.985 C 1.521,1.985 1.556,2.022 1.556,2.022 C 1.862,1.217 2.737,0 4.027,0 C 4.329,0 4.598,0.054 4.797,0.125 C 4.797,0.125 4.365,1.486 4.365,1.486 C 4.223,1.448 4.008,1.396 3.812,1.396 C 3.221,1.396 2.272,1.877 1.501,3.31 C 1.501,3.31 1.431,9.162 1.431,9.162 C 1.431,9.162 0,9.162 0,9.162 C 0,9.162 0.072,0.248 0.072,0.248 z "
       id="path50" />
  </g>
  <g
     transform="translate(205.02928,60.71407)"
     style="fill:#ffffff;fill-rule:nonzero;stroke:none;stroke-width:1pt;stroke-linecap:butt;stroke-linejoin:miter;stroke-dasharray:none"
     id="g52">
    <path
       d="M 1.539,3.292 C 1.539,3.292 1.575,0 1.575,0 C 1.575,0 3.006,0 3.006,0 C 3.006,0 2.969,3.292 2.969,3.292 C 2.969,3.292 5.404,3.292 5.404,3.292 C 5.404,3.292 5.404,4.368 5.404,4.368 C 5.404,4.368 2.952,4.368 2.952,4.368 C 2.952,4.368 2.916,8.02 2.916,8.02 C 2.899,9.02 2.899,9.686 2.899,10.131 C 2.899,10.866 3.114,11.275 3.723,11.275 C 4.205,11.275 4.814,10.97 5.154,10.755 C 5.154,10.755 5.621,11.686 5.621,11.686 C 5.028,12.079 4.169,12.455 3.383,12.455 C 2.002,12.455 1.466,11.598 1.466,10.184 C 1.466,9.593 1.466,8.859 1.485,7.624 C 1.485,7.624 1.521,4.368 1.521,4.368 C 1.521,4.368 0,4.368 0,4.368 C 0,4.368 0,3.292 0,3.292 C 0,3.292 1.539,3.292 1.539,3.292 z "
       id="path54" />
  </g>
  <g
     transform="translate(211.75928,63.75807)"
     style="fill:#ffffff;fill-rule:nonzero;stroke:none;stroke-width:1pt;stroke-linecap:butt;stroke-linejoin:miter;stroke-dasharray:none"
     id="g56">
    <path
       d="M 0.607,7.588 C 1.108,7.926 1.806,8.338 2.576,8.338 C 3.361,8.338 4.312,7.908 4.312,6.907 C 4.312,4.688 0.177,5.656 0.177,2.666 C 0.177,0.984 1.556,0 3.185,0 C 4.187,0 5.117,0.303 5.779,0.75 C 5.779,0.75 5.117,1.663 5.117,1.663 C 4.598,1.377 4.043,1.074 3.418,1.074 C 2.38,1.074 1.608,1.501 1.608,2.558 C 1.608,4.473 5.741,3.686 5.741,6.711 C 5.741,8.409 4.258,9.411 2.789,9.411 C 1.751,9.411 0.805,9.055 0,8.535 C 0,8.535 0.607,7.588 0.607,7.588 z "
       id="path58" />
  </g>
  <g
     transform="translate(223.41428,63.75807)"
     style="fill:#ffffff;fill-rule:nonzero;stroke:none;stroke-width:1pt;stroke-linecap:butt;stroke-linejoin:miter;stroke-dasharray:none"
     id="g60">
    <path
       d="M 5.137,7.032 C 4.581,7.711 3.903,8.338 3.026,8.338 C 2.041,8.338 1.433,7.822 1.433,6.817 C 1.433,5.295 2.72,4.83 5.208,4.509 C 5.208,4.509 5.137,7.032 5.137,7.032 z M 7.858,8.035 C 7.623,8.196 7.409,8.338 7.105,8.338 C 6.551,8.338 6.462,7.711 6.462,7.068 C 6.462,5.493 6.606,3.937 6.606,2.255 C 6.606,0.876 5.854,0 4.367,0 C 3.079,0 2.505,0.321 0.717,1.486 C 0.717,1.486 1.305,2.415 1.305,2.415 C 2.613,1.43 3.187,1.181 3.884,1.181 C 4.832,1.181 5.242,1.751 5.242,2.525 C 5.242,2.897 5.226,3.274 5.208,3.651 C 3.258,3.722 0,4.313 0,6.836 C 0,8.338 1.003,9.411 2.575,9.411 C 3.722,9.411 4.581,8.77 5.263,7.926 C 5.334,8.68 5.781,9.411 6.586,9.411 C 7.212,9.411 7.75,9.162 8.25,8.77 C 8.25,8.77 7.858,8.035 7.858,8.035 z "
       id="path62" />
  </g>
  <g
     transform="translate(233.54328,63.75807)"
     style="fill:#ffffff;fill-rule:nonzero;stroke:none;stroke-width:1pt;stroke-linecap:butt;stroke-linejoin:miter;stroke-dasharray:none"
     id="g64">
    <path
       d="M 0.071,0.248 C 0.071,0.248 1.505,0.248 1.505,0.248 C 1.505,0.248 1.45,1.68 1.45,1.68 C 1.45,1.68 1.486,1.68 1.486,1.68 C 2.237,0.607 3.454,0 4.512,0 C 6.569,0 7.231,1.055 7.231,2.7 C 7.231,3.383 7.211,4.063 7.211,4.742 C 7.211,4.742 7.176,9.162 7.176,9.162 C 7.176,9.162 5.744,9.162 5.744,9.162 C 5.744,9.162 5.782,5.152 5.782,5.152 C 5.782,4.365 5.799,3.578 5.799,2.7 C 5.799,1.735 5.153,1.288 4.169,1.288 C 3.24,1.288 2.417,1.824 1.505,2.933 C 1.505,2.933 1.433,9.162 1.433,9.162 C 1.433,9.162 0,9.162 0,9.162 C 0,9.162 0.071,0.248 0.071,0.248 z "
       id="path66" />
  </g>
  <g
     transform="translate(243.47528,59.49807)"
     style="fill:#ffffff;fill-rule:nonzero;stroke:none;stroke-width:1pt;stroke-linecap:butt;stroke-linejoin:miter;stroke-dasharray:none"
     id="g68">
    <path
       d="M 6.318,10.843 C 5.977,11.598 5.046,12.491 3.901,12.491 C 2.685,12.491 1.539,11.381 1.539,8.966 C 1.539,7.193 2.614,5.441 4.205,5.441 C 5.066,5.441 5.762,5.817 6.371,6.871 C 6.371,6.871 6.318,10.843 6.318,10.843 z M 6.353,5.422 C 6.353,5.422 6.318,5.422 6.318,5.422 C 5.977,4.795 5.082,4.26 4.027,4.26 C 2.005,4.26 0,6.317 0,9.019 C 0,12.528 2.057,13.671 3.58,13.671 C 4.832,13.671 5.888,12.993 6.299,12.223 C 6.299,12.223 6.335,12.223 6.335,12.223 C 6.335,12.223 6.299,13.422 6.299,13.422 C 6.299,13.422 7.749,13.422 7.749,13.422 C 7.749,13.422 7.892,0 7.892,0 C 7.892,0 6.426,0 6.426,0 C 6.426,0 6.353,5.422 6.353,5.422 z "
       id="path70" />
  </g>
  <g
     transform="translate(258.05028,60.28407)"
     style="fill:#ffffff;fill-rule:nonzero;stroke:none;stroke-width:1pt;stroke-linecap:butt;stroke-linejoin:miter;stroke-dasharray:none"
     id="g72">
    <path
       d="M 0.679,10.793 C 1.343,11.258 2.345,11.705 3.311,11.705 C 4.759,11.705 5.761,10.829 5.761,9.45 C 5.761,6.301 0.306,7.589 0.306,3.258 C 0.306,1.342 1.86,0 4.062,0 C 5.281,0 6.37,0.377 7.354,0.968 C 7.354,0.968 6.765,2.095 6.765,2.095 C 6.029,1.612 5.297,1.181 4.134,1.181 C 3.059,1.181 1.844,1.863 1.844,3.349 C 1.844,6.07 7.409,5.442 7.409,9.325 C 7.409,11.17 6.12,12.885 3.4,12.885 C 2.06,12.885 1.036,12.545 0,11.903 C 0,11.903 0.679,10.793 0.679,10.793 z "
       id="path74" />
  </g>
  <g
     transform="translate(267.49928,63.75807)"
     style="fill:#ffffff;fill-rule:nonzero;stroke:none;stroke-width:1pt;stroke-linecap:butt;stroke-linejoin:miter;stroke-dasharray:none"
     id="g76">
    <path
       d="M 6.156,2.217 C 5.599,1.538 4.957,1.181 4.222,1.181 C 2.9,1.181 1.538,2.469 1.538,4.976 C 1.538,6.979 2.827,8.231 4.206,8.231 C 4.975,8.231 5.799,7.659 6.228,7.087 C 6.228,7.087 6.96,7.926 6.96,7.926 C 6.103,8.948 5.169,9.411 3.956,9.411 C 1.735,9.411 0,7.659 0,4.706 C 0,2.255 1.735,0 4.169,0 C 5.332,0 6.389,0.589 7.086,1.486 C 7.086,1.486 6.156,2.217 6.156,2.217 z "
       id="path78" />
  </g>
  <g
     transform="translate(276.50128,60.53907)"
     style="fill:#ffffff;fill-rule:nonzero;stroke:none;stroke-width:1pt;stroke-linecap:butt;stroke-linejoin:miter;stroke-dasharray:none"
     id="g80">
    <path
       d="M 0.071,3.467 C 0.071,3.467 1.501,3.467 1.501,3.467 C 1.501,3.467 1.43,12.381 1.43,12.381 C 1.43,12.381 0,12.381 0,12.381 C 0,12.381 0.071,3.467 0.071,3.467 z M 0,0 C 0,0 1.538,0 1.538,0 C 1.538,0 1.538,1.608 1.538,1.608 C 1.538,1.608 0,1.608 0,1.608 C 0,1.608 0,0 0,0 z "
       id="path82" />
  </g>
  <g
     transform="translate(280.52628,63.75807)"
     style="fill:#ffffff;fill-rule:nonzero;stroke:none;stroke-width:1pt;stroke-linecap:butt;stroke-linejoin:miter;stroke-dasharray:none"
     id="g84">
    <path
       d="M 1.666,3.543 C 1.896,2.325 2.756,1.074 4.098,1.074 C 5.547,1.074 6.084,2.273 6.084,3.543 C 6.084,3.543 1.666,3.543 1.666,3.543 z M 7.515,4.509 C 7.515,4.509 7.515,4.222 7.515,4.222 C 7.515,1.824 6.478,0 4.082,0 C 1.681,0 0,2.255 0,4.706 C 0,7.623 1.431,9.411 3.9,9.411 C 5.225,9.411 6.388,8.733 7.301,7.822 C 7.301,7.822 6.604,7.05 6.604,7.05 C 5.835,7.75 5.082,8.338 4.062,8.338 C 2.238,8.338 1.539,6.674 1.539,4.814 C 1.539,4.814 1.539,4.509 1.539,4.509 C 1.539,4.509 7.515,4.509 7.515,4.509 z "
       id="path86" />
  </g>
  <g
     transform="translate(290.69228,63.75807)"
     style="fill:#ffffff;fill-rule:nonzero;stroke:none;stroke-width:1pt;stroke-linecap:butt;stroke-linejoin:miter;stroke-dasharray:none"
     id="g88">
    <path
       d="M 0.071,0.248 C 0.071,0.248 1.503,0.248 1.503,0.248 C 1.503,0.248 1.448,1.68 1.448,1.68 C 1.448,1.68 1.485,1.68 1.485,1.68 C 2.238,0.607 3.452,0 4.507,0 C 6.568,0 7.227,1.055 7.227,2.7 C 7.227,3.383 7.21,4.063 7.21,4.742 C 7.21,4.742 7.175,9.162 7.175,9.162 C 7.175,9.162 5.743,9.162 5.743,9.162 C 5.743,9.162 5.778,5.152 5.778,5.152 C 5.778,4.365 5.799,3.578 5.799,2.7 C 5.799,1.735 5.152,1.288 4.168,1.288 C 3.239,1.288 2.414,1.824 1.503,2.933 C 1.503,2.933 1.43,9.162 1.43,9.162 C 1.43,9.162 0,9.162 0,9.162 C 0,9.162 0.071,0.248 0.071,0.248 z "
       id="path90" />
  </g>
  <g
     transform="translate(300.53128,63.75807)"
     style="fill:#ffffff;fill-rule:nonzero;stroke:none;stroke-width:1pt;stroke-linecap:butt;stroke-linejoin:miter;stroke-dasharray:none"
     id="g92">
    <path
       d="M 6.157,2.217 C 5.605,1.538 4.959,1.181 4.226,1.181 C 2.901,1.181 1.541,2.469 1.541,4.976 C 1.541,6.979 2.831,8.231 4.206,8.231 C 4.976,8.231 5.8,7.659 6.23,7.087 C 6.23,7.087 6.962,7.926 6.962,7.926 C 6.104,8.948 5.174,9.411 3.956,9.411 C 1.739,9.411 0,7.659 0,4.706 C 0,2.255 1.739,0 4.173,0 C 5.336,0 6.391,0.589 7.09,1.486 C 7.09,1.486 6.157,2.217 6.157,2.217 z "
       id="path94" />
  </g>
  <g
     transform="translate(309.01728,63.75807)"
     style="fill:#ffffff;fill-rule:nonzero;stroke:none;stroke-width:1pt;stroke-linecap:butt;stroke-linejoin:miter;stroke-dasharray:none"
     id="g96">
    <path
       d="M 1.663,3.543 C 1.894,2.325 2.756,1.074 4.096,1.074 C 5.548,1.074 6.085,2.273 6.085,3.543 C 6.085,3.543 1.663,3.543 1.663,3.543 z M 7.514,4.509 C 7.514,4.509 7.514,4.222 7.514,4.222 C 7.514,1.824 6.476,0 4.079,0 C 1.681,0 0,2.255 0,4.706 C 0,7.623 1.43,9.411 3.9,9.411 C 5.224,9.411 6.387,8.733 7.3,7.822 C 7.3,7.822 6.602,7.05 6.602,7.05 C 5.833,7.75 5.081,8.338 4.061,8.338 C 2.236,8.338 1.539,6.674 1.539,4.814 C 1.539,4.814 1.539,4.509 1.539,4.509 C 1.539,4.509 7.514,4.509 7.514,4.509 z "
       id="path98" />
  </g>
  <g
     transform="translate(95.225076,29.35807)"
     style="fill:#ffffff;fill-rule:nonzero;stroke:none;stroke-width:1pt;stroke-linecap:butt;stroke-linejoin:miter;stroke-dasharray:none"
     id="g100">
    <path
       d="M 21.3516,0 C 21.3516,0 20.3066,0.039 20.3066,0.039 C 20.3066,0.039 19.9932,0.057 19.9932,0.057 C 19.9912,0.057 19.8945,0.062 19.8945,0.062 C 19.4482,0.092 18.9883,0.122 18.5635,0.122 C 17.9443,0.122 17.3633,0.09 16.8008,0.062 C 16.8008,0.062 16.7002,0.057 16.7002,0.057 C 16.0518,0.018 15.5918,0.005 15.1631,0.005 C 15.1631,0.005 14.9131,0.005 14.9131,0.005 C 14.9131,0.005 14.9131,1.376 14.9131,1.376 C 14.9131,1.376 15.6621,1.376 15.6621,1.376 C 17.0146,1.376 17.2861,1.651 17.2861,2.099 C 17.2861,2.38 17.2236,2.875 16.9219,3.649 C 16.752,4.084 13.1875,13.128 12.3203,15.331 C 11.4199,13.038 7.582,3.267 7.3984,2.799 C 7.2402,2.389 7.1523,2.037 7.1523,1.952 C 7.1523,1.729 7.5,1.376 8.4297,1.376 C 8.4297,1.376 9.3516,1.376 9.3516,1.376 C 9.3516,1.376 9.3516,0 9.3516,0 C 9.3516,0 9.1035,0 9.1035,0 C 9.1035,0 7.8145,0.038 7.8145,0.038 C 7.8145,0.038 7.458,0.052 7.458,0.052 C 7.46,0.052 7.0771,0.065 7.0771,0.065 C 6.2832,0.093 5.46,0.122 4.7637,0.122 C 4.0176,0.122 3.2549,0.09 2.5176,0.06 C 1.8252,0.034 1.0225,0.005 0.248,0.005 C 0.248,0.005 0,0.005 0,0.005 C 0,0.005 0,1.376 0,1.376 C 0,1.376 0.542,1.376 0.542,1.376 C 1.6797,1.376 2.2422,1.585 2.7744,2.892 C 2.7744,2.894 10.3916,21.405 10.3916,21.405 C 10.3916,21.405 11.7939,21.405 11.7939,21.405 C 11.7939,21.405 11.8662,21.273 11.8662,21.273 C 12.0742,20.796 13.0342,18.472 14.8936,13.939 C 16.4092,10.25 19.5615,2.569 19.7217,2.278 C 20.1406,1.443 20.5928,1.376 21.0605,1.376 C 21.0605,1.376 21.6025,1.376 21.6025,1.376 C 21.6025,1.376 21.6025,0 21.6025,0 C 21.6025,0 21.3965,0 21.3965,0 C 21.3965,0 21.3516,0 21.3516,0 z "
       id="path102" />
  </g>
  <g
     transform="translate(116.84718,29.15107)"
     style="fill:#ffffff;fill-rule:nonzero;stroke:none;stroke-width:1pt;stroke-linecap:butt;stroke-linejoin:miter;stroke-dasharray:none"
     id="g104">
    <path
       d="M 18.8261,18.773 C 18.5215,18.071 18.2314,17.217 17.9502,16.391 C 17.9502,16.391 17.75,15.801 17.75,15.801 C 17.75,15.801 17.7549,15.832 17.7578,15.851 C 17.7285,15.738 17.3545,14.684 12.4775,0.95 C 12.4765,0.945 12.2031,0.227 12.2031,0.227 C 12.1201,0 11.9658,0.015 11.7861,0.032 C 11.7861,0.032 11.7246,0.038 11.7246,0.038 C 11.7265,0.038 11.6299,0.046 11.6299,0.046 C 11.6338,0.046 11.3047,0.072 11.3047,0.072 C 11.3047,0.072 10.5996,0.129 10.5996,0.129 C 10.5976,0.129 10.5527,0.132 10.5527,0.132 C 10.1142,0.146 9.8232,0.156 9.1718,0.123 C 9.1718,0.123 8.9648,0.123 8.9648,0.123 C 8.9648,0.123 8.9189,0.313 8.9189,0.313 C 8.7412,1.004 8.33,2.123 7.9668,3.114 C 7.9668,3.114 7.8095,3.547 7.8095,3.547 C 7.8095,3.547 7.4287,4.595 7.4287,4.595 C 7.4277,4.597 2.7373,18.058 2.7373,18.058 C 2.3496,19.146 1.4863,19.797 0.4257,19.797 C 0.4257,19.797 0,19.797 0,19.797 C 0,19.797 0,21.19 0,21.19 C 0,21.19 0.2871,21.169 0.2871,21.169 C 0.2822,21.169 0.6416,21.15 0.6416,21.15 C 1.5507,21.103 2.4931,21.056 3.4131,21.056 C 4.4404,21.056 5.5263,21.103 6.4863,21.148 C 6.4863,21.148 6.9433,21.169 6.9463,21.169 C 6.9472,21.169 7.2099,21.195 7.2099,21.195 C 7.2099,21.195 7.2099,19.831 7.2099,19.831 C 7.2099,19.831 6.6406,19.831 6.6406,19.831 C 6.0547,19.831 4.6884,19.752 4.6884,19.02 C 4.6884,18.707 4.8418,18.26 5.0185,17.743 C 5.0185,17.743 5.3242,16.804 5.3242,16.804 C 5.3242,16.804 6.0244,14.529 6.208,13.933 C 6.4882,13.933 12.2256,13.933 12.499,13.933 C 12.582,14.183 13.5849,17.162 13.5849,17.162 C 13.8681,17.988 14.1582,18.842 14.1582,19.194 C 14.1582,19.786 13.0693,19.831 12.7363,19.831 C 12.7363,19.831 12.165,19.831 12.165,19.831 C 12.165,19.831 12.165,21.181 12.165,21.181 C 12.165,21.181 12.8818,21.154 12.8818,21.154 C 14.1045,21.107 15.3652,21.056 16.666,21.056 C 17.9004,21.056 19.0888,21.103 20.2382,21.15 C 20.2382,21.15 20.6718,21.169 20.6718,21.169 C 20.6718,21.169 20.959,21.188 20.959,21.188 C 20.959,21.188 20.959,19.797 20.959,19.797 C 20.959,19.797 20.5341,19.797 20.5341,19.797 C 19.6455,19.797 19.1357,19.491 18.8261,18.773 z M 11.7177,11.787 C 11.2431,11.787 7.4004,11.787 6.9248,11.787 C 7.3017,10.643 8.7929,6.101 9.333,4.455 C 9.5117,5.004 11.5576,11.297 11.7177,11.787 z "
       id="path106" />
  </g>
  <g
     transform="translate(141.11078,29.35807)"
     style="fill:#ffffff;fill-rule:nonzero;stroke:none;stroke-width:1pt;stroke-linecap:butt;stroke-linejoin:miter;stroke-dasharray:none"
     id="g108">
    <path
       d="M 22.1545,0.06 C 22.1545,0.06 21.9155,0.07 21.9155,0.07 C 21.2885,0.098 20.7225,0.122 20.1465,0.122 C 19.4585,0.122 18.7405,0.089 18.1065,0.06 C 17.4825,0.034 16.7585,0.005 16.0435,0.005 C 16.0435,0.005 15.7965,0.005 15.7965,0.005 C 15.7965,0.005 15.7965,1.376 15.7965,1.376 C 15.7965,1.376 16.6875,1.376 16.6875,1.376 C 17.5185,1.376 18.9165,1.702 18.9165,3.887 C 18.9175,3.983 18.9725,12.17 18.9865,14.346 C 16.9295,12.03 6.4288,0.198 6.3116,0.067 C 6.3116,0.067 6.251,0 6.251,0 C 6.251,0 6.1397,0 6.1397,0 C 5.6827,0 5.2237,0.027 4.8204,0.052 C 4.8223,0.052 4.6641,0.06 4.6641,0.06 C 4.6641,0.06 3.5293,0.099 3.5293,0.099 C 3.5293,0.099 2.1289,0.06 2.1289,0.06 C 2.1289,0.06 1.9356,0.052 1.9356,0.052 C 1.4737,0.028 0.919,0.005 0.3233,0.005 C 0.3233,0.005 0.0694,0.005 0.0694,0.005 C 0.0694,0.005 0.0948,1.274 0.0948,1.274 C 0.0948,1.274 0.711,1.306 0.711,1.306 C 1.2686,1.303 1.8233,1.539 2.2403,1.956 C 2.7022,2.419 2.9571,3.063 2.9571,3.769 C 2.9571,3.769 2.8672,16.111 2.8672,16.111 C 2.8672,18.336 2.5069,19.624 0.6602,19.624 C 0.6602,19.624 0,19.655 0,19.655 C 0,19.655 0,20.962 0,20.962 C 0,20.962 0.25,20.962 0.25,20.962 C 0.8955,20.962 1.5371,20.936 2.1553,20.912 C 2.1553,20.912 2.2071,20.91 2.2071,20.91 C 2.9659,20.868 3.5821,20.849 4.1455,20.849 C 4.6875,20.849 5.2852,20.868 6.0215,20.909 C 6.0254,20.91 6.0713,20.912 6.0713,20.912 C 6.0713,20.912 7.9258,20.962 7.9258,20.962 C 7.9258,20.962 8.1768,20.962 8.1768,20.962 C 8.1768,20.962 8.1768,19.59 8.1768,19.59 C 8.1768,19.59 7.4278,19.59 7.4278,19.59 C 5.542,19.579 4.9961,18.864 4.9961,16.408 C 4.9961,16.407 4.9395,7.306 4.9248,4.984 C 5.6065,5.745 19.6565,21.405 19.6565,21.405 C 19.6565,21.405 21.1625,21.405 21.1625,21.405 C 21.1625,21.405 21.1285,21.123 21.1285,21.123 C 20.9745,20.176 20.9545,19.112 20.9545,18.196 C 20.9545,18.196 21.0355,4.855 21.0355,4.855 C 21.0355,1.376 22.3205,1.376 23.2605,1.376 C 23.2675,1.376 23.9475,1.351 23.9475,1.351 C 23.9475,1.351 23.9475,0.02 23.9475,0.02 C 23.9475,0.02 23.6965,0.02 23.6965,0.02 C 23.6965,0.02 22.1545,0.06 22.1545,0.06 z "
       id="path110" />
  </g>
  <g
     transform="translate(170.06328,29.35807)"
     style="fill:#ffffff;fill-rule:nonzero;stroke:none;stroke-width:1pt;stroke-linecap:butt;stroke-linejoin:miter;stroke-dasharray:none"
     id="g112">
    <path
       d="M 18.347,2.851 C 16.239,0.986 13.234,0 9.66,0 C 9.66,0 7.886,0.047 7.886,0.047 C 7.886,0.047 7.757,0.052 7.757,0.052 C 6.889,0.087 5.948,0.122 4.938,0.122 C 3.859,0.122 2.742,0.081 1.779,0.043 C 1.776,0.042 1.205,0.025 1.205,0.025 C 1.205,0.025 0.249,0.005 0.249,0.005 C 0.249,0.005 0,0.005 0,0.005 C 0,0.005 0,1.376 0,1.376 C 0,1.376 0.66,1.376 0.66,1.376 C 1.875,1.376 2.579,1.608 2.579,2.804 C 2.579,2.804 2.579,18.164 2.579,18.164 C 2.579,19.497 1.775,19.607 0.806,19.607 C 0.806,19.607 0.146,19.633 0.146,19.633 C 0.146,19.633 0.146,20.962 0.146,20.962 C 0.146,20.962 0.393,20.962 0.393,20.962 C 0.393,20.962 1.729,20.927 1.729,20.927 C 1.729,20.927 2.072,20.915 2.072,20.915 C 2.935,20.886 4.009,20.849 5.086,20.849 C 7.49,20.849 9.77,20.934 10.411,20.962 C 13.315,21.139 16.089,20.13 18.216,18.122 C 20.333,16.131 21.544,13.324 21.544,10.422 C 21.544,7.324 20.439,4.707 18.347,2.851 z M 16.944,10.978 C 16.944,13.23 16.284,15.265 15.088,16.711 C 13.781,18.286 11.893,19.12 9.628,19.12 C 7.64,19.12 6.83,18.934 6.83,17.051 C 6.83,17.051 6.83,2.262 6.83,1.901 C 6.943,1.891 7.06,1.879 7.06,1.879 C 7.555,1.828 8.066,1.776 8.576,1.776 C 11.215,1.776 13.145,2.351 14.477,3.539 C 16.137,5.016 16.944,7.45 16.944,10.978 z "
       id="path114" />
  </g>
  <g
     transform="translate(196.64628,29.35807)"
     style="fill:#ffffff;fill-rule:nonzero;stroke:none;stroke-width:1pt;stroke-linecap:butt;stroke-linejoin:miter;stroke-dasharray:none"
     id="g116">
    <path
       d="M 15.467,15.885 C 15.05,17.469 14.59,18.239 13.826,18.629 C 13.051,19.017 11.927,19.017 10.224,19.017 C 10.224,19.017 10.156,19.017 10.156,19.017 C 8.093,19.017 6.83,18.935 6.83,17.356 C 6.83,17.356 6.83,11.32 6.83,10.938 C 7.19,10.938 10.19,10.938 10.19,10.938 C 11.962,10.938 12.103,11.663 12.282,13.447 C 12.283,13.453 12.317,13.725 12.317,13.725 C 12.317,13.725 13.626,13.449 13.626,13.449 C 13.626,13.449 13.606,13.231 13.606,13.231 C 13.547,12.063 13.52,11.114 13.52,10.07 C 13.52,8.932 13.55,8.107 13.606,6.981 C 13.606,6.981 13.626,6.716 13.626,6.716 C 13.626,6.716 12.383,6.747 12.383,6.747 C 12.383,6.747 12.356,6.961 12.356,6.961 C 12.182,8.523 11.69,8.974 10.161,8.974 C 10.161,8.974 7.189,8.974 6.83,8.974 C 6.83,8.601 6.83,2.329 6.83,1.955 C 7.195,1.955 10.656,1.955 10.656,1.955 C 13.577,1.955 13.788,2.92 13.929,4.767 C 13.93,4.776 13.965,5.064 13.965,5.064 C 13.965,5.064 15.254,4.724 15.254,4.724 C 15.254,4.724 15.235,4.515 15.235,4.515 C 15.156,3.358 15.228,1.855 15.285,0.647 C 15.285,0.647 15.317,0 15.317,0 C 15.317,0 15.104,0 15.104,0 C 15.104,0 15.056,0 15.056,0 C 14.113,0 12.925,0.025 11.686,0.056 C 11.686,0.056 11.425,0.062 11.425,0.062 C 10.117,0.09 8.763,0.122 7.548,0.122 C 6.179,0.122 4.54,0.083 3.344,0.056 C 1.991,0.02 0.978,0.005 0.248,0.005 C 0.248,0.005 0,0.005 0,0.005 C 0,0.005 0,1.376 0,1.376 C 0,1.376 0.659,1.376 0.659,1.376 C 1.877,1.376 2.58,1.608 2.58,2.804 C 2.58,2.804 2.58,18.164 2.58,18.164 C 2.58,19.418 1.95,19.663 0.861,19.663 C 0.861,19.663 0.201,19.663 0.201,19.663 C 0.201,19.663 0.201,20.962 0.201,20.962 C 0.201,20.962 0.449,20.962 0.449,20.962 C 0.449,20.962 3.433,20.92 3.433,20.92 C 4.887,20.885 6.573,20.849 8.047,20.849 C 9.477,20.849 11.118,20.885 12.533,20.92 C 12.534,20.92 12.796,20.924 12.796,20.924 C 12.796,20.924 15.768,20.962 15.768,20.962 C 15.768,20.962 15.986,20.962 15.986,20.962 C 15.986,20.962 16.016,20.752 16.016,20.752 C 16.015,20.756 16.256,19.141 16.256,19.141 C 16.394,18.147 16.526,17.21 16.771,16.209 C 16.772,16.2 16.823,15.961 16.823,15.961 C 16.823,15.961 15.522,15.639 15.522,15.639 C 15.522,15.639 15.467,15.885 15.467,15.885 z "
       id="path118" />
  </g>
  <g
     transform="translate(243.84328,29.35807)"
     style="fill:#ffffff;fill-rule:nonzero;stroke:none;stroke-width:1pt;stroke-linecap:butt;stroke-linejoin:miter;stroke-dasharray:none"
     id="g120">
    <path
       d="M 12.39,9.507 C 14.429,8.892 16.438,7.596 16.438,4.854 C 16.438,3.394 15.905,2.232 14.853,1.399 C 13.678,0.471 11.88,0 9.51,0 C 8.88,0 8.186,0.024 7.407,0.057 C 7.407,0.057 7.263,0.062 7.263,0.062 C 6.469,0.09 5.646,0.122 4.82,0.122 C 4.003,0.122 3.193,0.09 2.411,0.062 C 2.411,0.062 2.271,0.057 2.271,0.057 C 1.407,0.02 0.782,0.005 0.248,0.005 C 0.248,0.005 0,0.005 0,0.005 C 0,0.005 0,1.376 0,1.376 C 0,1.376 0.656,1.376 0.656,1.376 C 1.874,1.376 2.579,1.608 2.579,2.804 C 2.579,2.804 2.579,18.164 2.579,18.164 C 2.579,19.356 1.874,19.59 0.656,19.59 C 0.656,19.59 0,19.59 0,19.59 C 0,19.59 0,20.962 0,20.962 C 0,20.962 0.248,20.962 0.248,20.962 C 0.248,20.962 2.214,20.925 2.214,20.925 C 2.214,20.925 2.394,20.92 2.394,20.92 C 3.344,20.885 4.446,20.849 5.436,20.849 C 6.414,20.849 7.373,20.88 8.265,20.914 C 8.267,20.914 10.565,20.962 10.565,20.962 C 12.468,20.962 14.263,20.333 15.615,19.191 C 16.979,18.044 17.733,16.525 17.733,14.917 C 17.733,13.489 17.21,12.227 16.222,11.267 C 15.279,10.35 13.894,9.729 12.39,9.507 z M 8.033,8.901 C 8.033,8.901 7.213,8.878 6.828,8.866 C 6.828,8.502 6.828,2.094 6.828,1.72 C 7.146,1.72 8.338,1.72 8.338,1.72 C 10.156,1.72 12.014,2.157 12.014,5.411 C 12.014,7.76 10.711,8.901 8.033,8.901 z M 13.309,15.028 C 13.309,17.463 11.587,19.228 9.218,19.228 C 7.143,19.228 6.828,18.934 6.828,16.987 C 6.828,16.987 6.828,10.974 6.828,10.585 C 7.15,10.591 8.452,10.615 8.452,10.615 C 9.91,10.615 11.115,10.98 11.945,11.664 C 12.849,12.422 13.309,13.552 13.309,15.028 z "
       id="path122" />
  </g>
  <g
     transform="translate(267.48128,29.35807)"
     style="fill:#ffffff;fill-rule:nonzero;stroke:none;stroke-width:1pt;stroke-linecap:butt;stroke-linejoin:miter;stroke-dasharray:none"
     id="g124">
    <path
       d="M 9.135,0 C 9.135,0 7.458,0.038 7.458,0.038 C 7.458,0.038 6.928,0.056 6.928,0.056 C 6.927,0.057 6.776,0.062 6.776,0.062 C 6.043,0.09 5.283,0.122 4.588,0.122 C 3.883,0.122 3.101,0.09 2.343,0.062 C 2.343,0.062 2.188,0.057 2.188,0.057 C 1.345,0.02 0.729,0.005 0.25,0.005 C 0.25,0.005 0,0.005 0,0.005 C 0,0.005 0,1.376 0,1.376 C 0,1.376 0.659,1.376 0.659,1.376 C 1.877,1.376 2.581,1.608 2.581,2.804 C 2.581,2.804 2.581,18.164 2.581,18.164 C 2.581,19.356 1.877,19.59 0.659,19.59 C 0.659,19.59 0,19.59 0,19.59 C 0,19.59 0,20.962 0,20.962 C 0,20.962 0.25,20.962 0.25,20.962 C 0.25,20.962 2.176,20.914 2.176,20.914 C 2.913,20.882 3.772,20.849 4.559,20.849 C 5.297,20.849 6.113,20.878 6.884,20.91 C 6.885,20.91 6.968,20.914 6.968,20.914 C 6.968,20.914 9.135,20.962 9.135,20.962 C 9.135,20.962 9.385,20.962 9.385,20.962 C 9.385,20.962 9.385,19.59 9.385,19.59 C 9.385,19.59 8.727,19.59 8.727,19.59 C 7.509,19.59 6.805,19.356 6.805,18.164 C 6.805,18.164 6.805,2.804 6.805,2.804 C 6.805,1.608 7.509,1.376 8.727,1.376 C 8.727,1.376 9.385,1.376 9.385,1.376 C 9.385,1.376 9.385,0 9.385,0 C 9.385,0 9.182,0 9.182,0 C 9.182,0 9.135,0 9.135,0 z "
       id="path126" />
  </g>
  <g
     transform="translate(283.77028,29.35807)"
     style="fill:#ffffff;fill-rule:nonzero;stroke:none;stroke-width:1pt;stroke-linecap:butt;stroke-linejoin:miter;stroke-dasharray:none"
     id="g128">
    <path
       d="M 15.23,15.769 C 15.051,16.432 14.862,16.927 14.432,17.516 C 13.894,18.262 12.933,18.779 11.863,18.902 C 10.627,19.038 9.686,19.056 8.39,18.959 C 7.322,18.825 6.862,18.409 6.862,17.57 C 6.862,17.57 6.862,2.714 6.862,2.714 C 6.862,1.376 7.517,1.376 8.605,1.376 C 8.605,1.376 9.588,1.376 9.588,1.376 C 9.588,1.376 9.588,0 9.588,0 C 9.588,0 9.384,0 9.384,0 C 9.384,0 9.338,0 9.338,0 C 8.621,0 7.896,0.028 7.197,0.057 C 7.197,0.057 7.102,0.06 7.102,0.06 C 6.38,0.09 5.633,0.122 4.884,0.122 C 4.107,0.122 3.329,0.09 2.575,0.06 C 1.873,0.034 1.054,0.005 0.251,0.005 C 0.251,0.005 0,0.005 0,0.005 C 0,0.005 0,1.376 0,1.376 C 0,1.376 0.662,1.376 0.662,1.376 C 1.896,1.376 2.609,1.608 2.609,2.804 C 2.609,2.804 2.609,17.87 2.609,17.87 C 2.609,19.458 1.688,19.59 0.662,19.59 C 0.662,19.59 0,19.59 0,19.59 C 0,19.59 0,20.962 0,20.962 C 0,20.962 0.251,20.962 0.251,20.962 C 0.251,20.962 4.029,20.912 4.029,20.912 C 4.029,20.912 4.127,20.91 4.127,20.91 C 5.644,20.868 6.873,20.849 7.991,20.849 C 9.106,20.849 10.244,20.868 11.677,20.91 C 11.68,20.91 11.783,20.912 11.783,20.912 C 12.935,20.936 14.125,20.962 15.381,20.962 C 15.381,20.962 15.586,20.962 15.586,20.962 C 15.586,20.962 15.624,20.762 15.624,20.762 C 15.859,19.661 16.045,18.651 16.245,17.58 C 16.245,17.58 16.62,15.595 16.62,15.595 C 16.62,15.595 15.285,15.595 15.285,15.595 C 15.285,15.595 15.23,15.769 15.23,15.769 z "
       id="path130" />
  </g>
  <g
     transform="translate(218.91628,29.35807)"
     style="fill:#ffffff;fill-rule:nonzero;stroke:none;stroke-width:1pt;stroke-linecap:butt;stroke-linejoin:miter;stroke-dasharray:none"
     id="g132">
    <path
       d="M 17.963,17.962 C 17.954,17.951 14.197,12.838 14.197,12.838 C 13.565,12.001 13.015,11.453 12.552,11.199 C 14.569,10.288 16.738,8.33 16.738,5.501 C 16.738,3.491 15.992,2.012 14.519,1.104 C 13.329,0.371 11.645,0 9.512,0 C 9.512,0 7.756,0.041 7.756,0.041 C 7.756,0.041 7.298,0.056 7.298,0.056 C 7.297,0.057 7.166,0.06 7.166,0.06 C 6.421,0.09 5.65,0.122 4.793,0.122 C 3.804,0.122 2.789,0.085 1.841,0.047 C 1.84,0.047 1.546,0.038 1.546,0.038 C 1.546,0.038 0.249,0.005 0.249,0.005 C 0.249,0.005 0,0.005 0,0.005 C 0,0.005 0,1.376 0,1.376 C 0,1.376 0.778,1.376 0.778,1.376 C 1.78,1.376 2.608,1.525 2.608,3.361 C 2.608,3.361 2.608,18.253 2.608,18.253 C 2.608,19.526 1.306,19.624 0.905,19.624 C 0.905,19.624 0.127,19.653 0.127,19.653 C 0.127,19.653 0.127,20.962 0.127,20.962 C 0.127,20.962 0.377,20.962 0.377,20.962 C 1.077,20.962 1.729,20.938 2.491,20.905 C 3.124,20.877 3.807,20.849 4.501,20.849 C 5.226,20.849 6.024,20.868 7.011,20.91 C 7.014,20.91 7.084,20.912 7.084,20.912 C 7.084,20.912 9.543,20.962 9.543,20.962 C 9.543,20.962 9.792,20.962 9.792,20.962 C 9.792,20.962 9.792,19.59 9.792,19.59 C 9.792,19.59 9.016,19.59 9.016,19.59 C 7.68,19.59 6.861,19.488 6.861,17.495 C 6.861,17.495 6.861,12.279 6.861,11.891 C 7.173,11.9 8.194,11.928 8.194,11.928 C 8.61,11.954 8.931,12.057 9.225,12.49 C 9.922,13.551 11.561,16.039 14.071,19.333 C 15.248,20.939 16.749,20.939 17.845,20.939 C 17.847,20.939 21.159,20.949 21.159,20.949 C 21.159,20.949 21.159,19.633 21.159,19.633 C 21.159,19.633 20.933,19.608 20.933,19.608 C 19.381,19.529 18.889,19.356 17.963,17.962 z M 12.311,5.678 C 12.311,7.239 11.932,8.404 11.186,9.141 C 10.493,9.834 9.451,10.178 8.094,10.167 C 8.081,10.165 7.148,10.097 6.861,10.076 C 6.861,9.723 6.861,2.173 6.861,1.83 C 6.938,1.823 7.016,1.815 7.016,1.815 C 7.313,1.78 7.68,1.738 8.28,1.738 C 10.766,1.738 12.311,3.248 12.311,5.678 z "
       id="path134" />
  </g>
  <g
     transform="translate(301.29128,29.18607)"
     style="fill:#ffffff;fill-rule:nonzero;stroke:none;stroke-width:1pt;stroke-linecap:butt;stroke-linejoin:miter;stroke-dasharray:none"
     id="g136">
    <path
       d="M 19.406,0.094 C 19.406,0.094 18.753,0.145 18.753,0.145 C 18.749,0.145 18.663,0.15 18.663,0.15 C 18.662,0.15 17.357,0.172 17.357,0.172 C 17.357,0.172 3.272,0.172 3.272,0.172 C 2.576,0.172 2.136,0.142 1.711,0.113 C 1.711,0.113 1.62,0.107 1.616,0.107 C 1.615,0.106 1.569,0.1 1.569,0.1 C 1.56,0.1 0.467,0 0.467,0 C 0.467,0 0.467,0.224 0.467,0.224 C 0.467,0.224 0.467,0.273 0.467,0.273 C 0.468,0.936 0.448,1.247 0.357,2.035 C 0.356,2.036 0.336,2.213 0.336,2.213 C 0.336,2.211 0.298,2.527 0.298,2.527 C 0.298,2.527 0.029,4.67 0.029,4.67 C 0.029,4.67 0,4.897 0,4.897 C 0,4.897 1.363,4.897 1.363,4.897 C 1.363,4.897 1.414,4.716 1.414,4.716 C 1.858,2.559 1.915,2.281 3.92,2.266 C 3.92,2.266 7.493,2.266 7.862,2.266 C 7.862,2.661 7.862,17.547 7.862,17.547 C 7.862,19.673 7.193,19.762 5.677,19.762 C 5.677,19.762 4.87,19.762 4.87,19.762 C 4.87,19.762 4.87,21.134 4.87,21.134 C 4.87,21.134 5.118,21.134 5.118,21.134 C 5.118,21.134 7.096,21.092 7.096,21.092 C 8.026,21.057 9.107,21.021 10.074,21.021 C 10.906,21.021 11.894,21.055 12.766,21.084 C 12.766,21.084 12.824,21.086 12.824,21.086 C 12.824,21.086 14.852,21.134 14.852,21.134 C 14.852,21.134 15.103,21.134 15.103,21.134 C 15.103,21.134 15.103,19.762 15.103,19.762 C 15.103,19.762 14.296,19.762 14.296,19.762 C 13.017,19.762 12.113,19.6 12.113,17.489 C 12.113,17.489 12.113,2.661 12.113,2.266 C 12.481,2.266 16.184,2.266 16.184,2.266 C 18.002,2.281 18.091,3.891 18.14,4.755 C 18.14,4.765 18.156,5.064 18.156,5.064 C 18.156,5.064 19.498,4.729 19.498,4.729 C 19.498,4.729 19.498,4.534 19.498,4.534 C 19.498,4.534 19.546,2.199 19.546,2.199 C 19.569,1.421 19.626,0.717 19.66,0.366 C 19.66,0.364 19.686,0.065 19.686,0.065 C 19.686,0.065 19.389,0.094 19.389,0.094 C 19.389,0.094 19.406,0.094 19.406,0.094 z "
       id="path138" />
  </g>
  <g
     transform="translate(21.758274,19.93847)"
     style="fill:#997F3D;fill-rule:nonzero;stroke:none;stroke-width:1pt;stroke-linecap:butt;stroke-linejoin:miter;stroke-dasharray:none"
     id="g140">
    <path
       d="M 0,0 C 0,0 0,60.3726 0,60.3726 C 0,60.3726 60.367,60.3726 60.367,60.3726 C 60.367,60.3726 60.367,0 60.367,0 C 60.367,0 0,0 0,0 z M 58.677,1.6895 C 58.677,3.3066 58.677,57.0674 58.677,58.6846 C 57.062,58.6846 3.305,58.6846 1.689,58.6846 C 1.689,57.0674 1.689,3.3066 1.689,1.6895 C 3.305,1.6895 57.062,1.6895 58.677,1.6895 z "
       id="path142" />
  </g>
  <g
     transform="translate(26.273831,28.54354)"
     style="fill:#997F3D;fill-rule:nonzero;stroke:none;stroke-width:1pt;stroke-linecap:butt;stroke-linejoin:miter;stroke-dasharray:none"
     id="g144">
    <path
       d="M 28.314,0.0137 C 28.311,0.706 28.311,2.4189 28.314,2.749 C 28.514,2.751 29.075,2.749 29.389,2.7471 C 30.454,2.7432 31.961,2.7441 32.553,3.3271 C 33.709,4.5547 32.204,5.6768 30.821,7.5469 C 28.64,10.4473 29.993,12.3437 31.43,11.3271 C 32.263,10.7168 34.062,9.3779 34.939,8.9326 C 36.768,8.0644 37.942,10.3838 36.037,12.8994 C 35.285,13.9307 33.839,15.2334 32.909,16.6103 C 31.762,18.2676 32.298,20.4941 34.512,18.8418 C 37.064,16.9209 37.966,19.8965 35.27,22.6934 C 32.797,25.3457 31.293,27.2588 32.019,29.5703 C 32.289,30.4141 32.61,31.3389 32.89,32.1475 C 32.928,32.2353 32.989,32.292 32.989,32.292 C 32.989,32.292 32.924,32.3994 32.924,32.3994 C 32.924,32.3994 32.867,32.3691 32.693,32.3652 C 32.693,32.3652 31.144,32.3662 31.144,32.3662 C 31.06,32.1348 30.247,29.9394 29.38,27.582 C 29.106,26.8809 28.756,26.3848 27.06,25.876 C 26.697,25.7666 26.392,25.6758 26.22,25.625 C 25.933,25.5488 25.783,25.5908 25.575,25.7314 C 25.178,26.0254 24.669,26.4004 24.485,26.5371 C 23.465,27.2871 22.964,27.5225 22.525,27.4131 C 22.187,27.3193 22.011,27.0644 22.022,26.6289 C 22.022,26.5889 22.021,26.5303 22.02,26.5117 C 22.506,25.7207 22.889,24.8672 23.16,23.9639 C 23.429,23.0605 23.579,22.1426 23.604,21.2148 C 23.619,21.1963 23.647,21.1533 23.667,21.123 C 23.898,20.7539 24.184,20.6367 24.518,20.7441 C 24.947,20.8935 25.237,21.3643 25.676,22.5498 C 25.753,22.7598 25.965,23.3301 26.133,23.7871 C 26.239,24.0586 26.346,24.1816 26.69,24.2842 C 26.986,24.3721 27.535,24.5371 28.127,24.7139 C 28.19,24.7334 28.242,24.791 28.261,24.8086 C 28.282,24.7891 28.368,24.7021 28.368,24.7021 C 28.368,24.7021 28.297,24.6387 28.265,24.5586 C 27.661,22.918 27.192,21.6416 27.152,21.5332 C 26.436,19.6348 25.955,18.8623 24.621,17.8779 C 23.323,16.9541 21.329,16.2334 20.199,15.583 C 16.76,13.626 17.343,10.7998 19.299,10.9072 C 20.05,10.917 21.755,11.5557 22.971,12.0254 C 25.078,12.8047 25.143,10.2041 22.414,8.2051 C 18.947,5.6621 18.287,4.3369 19.098,3.3018 C 19.531,2.749 20.718,2.7441 21.898,2.7549 C 22.11,2.7519 22.703,2.7519 22.849,2.7549 C 22.849,2.0723 22.855,0.7637 22.855,0.0107 C 22.855,0.0107 0.001,0 0.001,0 C 0.001,0 0,2.749 0,2.749 C 0.566,2.7402 1.018,2.7637 1.69,2.8154 C 3.606,2.9834 5.051,3.9131 6.573,7.8232 C 7.909,11.333 18.89,39.1543 20.017,42.1172 C 20.323,42.1103 31.15,42.1182 31.15,42.1182 C 32.11,39.667 42.836,12.1162 44.579,7.71 C 46.133,3.7773 47.792,3.0098 49.64,2.8584 C 50.079,2.8223 50.622,2.8027 51.08,2.8066 C 51.08,2.8066 51.082,0.0254 51.082,0.0254 C 51.082,0.0254 28.314,0.0137 28.314,0.0137 z M 20.129,25.7773 C 18.674,25.2578 18.12,24.8066 17.95,23.2998 C 17.902,22.9209 17.892,22.3955 17.892,22.3955 C 17.892,22.3955 18.19,21.9639 18.435,21.6709 C 19.405,20.5049 20.117,20.4316 21.619,20.7969 C 21.79,20.833 22.421,20.9717 22.925,21.0801 C 22.908,21.9844 22.768,22.8857 22.505,23.7695 C 22.239,24.6523 21.862,25.4853 21.375,26.2559 C 20.893,26.0713 20.293,25.8398 20.129,25.7773 z "
       id="path146" />
  </g>
</svg>
